<svg width="340" height="61" viewBox="0 0 340 61" fill="none" xmlns="http://www.w3.org/2000/svg">
<g clip-path="url(#clip0_22_394)">
<path d="M0 3.32935V8.0694H15.3093V59.42H20.4684V8.0694H35.8337V3.32935H0Z" fill="black"/>
<path d="M59.1621 48.4727C57.9284 51.1813 56.3582 53.2692 54.5637 54.6235C52.6571 55.9778 50.4701 56.655 47.9466 56.655C44.5258 56.655 41.8341 55.3571 39.7031 52.8742C37.6282 50.3913 36.5628 46.9491 36.4506 42.5477H63.2558V41.4755C63.2558 36.2276 61.8539 32.0518 59.05 28.8918C56.2461 25.7317 52.5449 24.1517 47.7783 24.1517C43.0117 24.1517 38.918 25.8446 35.9459 29.2868C32.9177 32.729 31.4036 37.1869 31.4036 42.7734C31.4036 48.3599 32.9177 52.5356 36.002 55.865C39.0302 59.1943 43.0678 60.8872 47.9466 60.8872C51.6477 60.8872 54.6759 60.0971 57.1433 58.4607C59.7229 56.8242 61.7417 54.2849 63.4801 50.8428L59.1621 48.4727ZM40.0957 31.3747C41.9462 29.6254 44.4137 28.7225 47.2736 28.7225C50.3579 28.7225 52.8253 29.5689 54.6759 31.2618C56.4704 32.9547 57.4798 35.3811 57.7041 38.4848H36.731C37.0675 35.5504 38.1329 33.1804 40.0957 31.3747Z" fill="black"/>
<path d="M73.2938 0V59.42H78.1725V0H73.2938Z" fill="black"/>
<path d="M91.2386 0V59.42H96.1174V0H91.2386Z" fill="black"/>
<path d="M133.858 48.4727C132.624 51.1813 131.054 53.2692 129.147 54.6235C127.241 55.9778 125.054 56.655 122.642 56.655C119.165 56.655 116.362 55.3571 114.399 52.8742C112.268 50.3913 111.146 46.9491 111.034 42.5477H137.952V41.4755C137.952 36.2276 136.55 32.0518 133.746 28.8918C130.83 25.7317 127.185 24.1517 122.418 24.1517C117.651 24.1517 113.558 25.8446 110.529 29.2868C107.557 32.729 106.043 37.1869 106.043 42.7734C106.043 48.3599 107.557 52.5356 110.642 55.865C113.614 59.1943 117.651 60.8872 122.642 60.8872C126.231 60.8872 129.259 60.0971 131.783 58.4607C134.363 56.8242 136.381 54.2849 138.176 50.8428L133.858 48.4727ZM114.735 31.3747C116.586 29.6254 119.053 28.7225 121.857 28.7225C124.941 28.7225 127.465 29.5689 129.259 31.2618C131.11 32.9547 132.119 35.3811 132.4 38.4848H111.427C111.707 35.5504 112.829 33.1804 114.735 31.3747Z" fill="black"/>
<path d="M165.205 24.321C164.588 24.2082 163.916 24.1517 163.243 24.1517C160.999 24.1517 159.149 24.7725 157.41 25.9575C155.728 27.1989 154.102 29.2868 152.363 32.2211V25.3932H147.653V59.42H152.363V42.6605C152.363 38.7105 153.373 35.4376 155.392 32.7854C157.298 30.1332 159.71 28.7789 162.514 28.7789C163.018 28.7789 163.635 28.7789 164.084 28.9482C164.701 29.0611 165.205 29.1739 165.71 29.3432L167.224 24.8853C166.607 24.6596 165.878 24.4903 165.205 24.321Z" fill="black"/>
<path d="M201.376 26.3525C203.45 26.3525 205.525 26.7475 207.264 27.5939C209.114 28.3839 210.741 29.569 212.143 31.0925V20.8788C210.628 20.0888 209.002 19.4681 207.376 19.0167C205.637 18.6217 203.731 18.4524 201.656 18.4524C195.151 18.4524 189.936 20.371 185.954 24.321C181.917 28.2147 179.842 33.3497 179.842 39.7262C179.842 46.1027 181.86 51.1249 185.73 55.075C189.543 59.025 194.646 61 200.759 61C202.946 61 204.908 60.7743 206.815 60.3229C208.666 59.815 210.46 59.1379 212.143 58.1786V47.7392C210.853 49.432 209.283 50.6735 207.6 51.4635C205.862 52.3099 204.011 52.7049 201.768 52.7049C197.843 52.7049 194.758 51.5199 192.515 49.2063C190.328 46.8363 189.151 43.6198 189.151 39.5005C189.151 35.3812 190.328 32.334 192.515 29.964C194.758 27.5939 197.674 26.3525 201.376 26.3525Z" fill="black"/>
<path d="M249.322 19.8067V26.2961C248.257 23.7567 246.63 21.8381 244.331 20.4838C242.088 19.1295 239.34 18.4524 236.144 18.4524C230.873 18.4524 226.611 20.371 223.302 24.2646C220.106 28.1582 218.479 33.2369 218.479 39.5569C218.479 46.2156 219.993 51.4635 223.19 55.3007C226.442 59.0814 230.816 61 236.424 61C239.172 61 241.583 60.4922 243.714 59.3636C245.901 58.235 247.808 56.5421 249.322 54.285V59.42H258.351V19.8067H249.322ZM246.518 49.2628C244.555 51.7456 241.92 52.9871 238.611 52.9871C235.303 52.9871 232.611 51.8021 230.704 49.5449C228.798 47.2877 227.9 44.0148 227.9 39.8391C227.9 35.6633 228.798 32.3904 230.816 30.0204C232.723 27.6504 235.415 26.5218 238.779 26.5218C242.144 26.5218 244.892 27.6504 246.743 29.9075C248.705 32.2211 249.602 35.3812 249.602 39.5005C249.602 43.6198 248.593 46.7799 246.518 49.2628Z" fill="black"/>
<path d="M293.287 18.9038C292.053 18.5653 290.876 18.4524 289.586 18.4524C287.175 18.4524 285.268 19.0731 283.642 20.3146C282.016 21.556 280.726 23.531 279.828 26.1268V19.7503H270.8V59.42H279.828V42.0398C279.828 36.3405 280.445 32.2776 281.791 29.9075C283.081 27.4811 285.212 26.2961 288.24 26.2961C289.25 26.2961 290.259 26.4089 291.212 26.6911C292.053 26.9732 292.895 27.3682 293.736 27.9325L296.988 20.2581C295.811 19.6374 294.521 19.186 293.287 18.9038Z" fill="black"/>
<path d="M340 39.2183C340 32.6726 338.149 27.5375 334.673 23.926C331.084 20.2581 326.205 18.4524 319.812 18.4524C313.812 18.4524 308.821 20.4274 305.007 24.4339C301.082 28.4404 299.231 33.519 299.231 39.7262C299.231 45.9334 301.082 51.3506 304.839 55.2443C308.484 59.0814 313.587 61 319.812 61C324.242 61 328.055 60.0407 331.308 58.1221C334.617 56.1471 337.364 53.2128 339.551 49.2063L331.925 44.9741C330.523 47.6827 328.841 49.6578 326.878 50.8992C324.915 52.0842 322.504 52.7049 319.644 52.7049C316.391 52.7049 313.812 51.6892 311.849 49.6013C309.83 47.5134 308.709 44.6356 308.484 40.9112H340V39.2183ZM309.157 34.8169C309.83 31.939 311.12 29.7382 312.858 28.2711C314.709 26.8603 317.008 26.1268 319.98 26.1268C323.177 26.1268 325.588 26.8603 327.439 28.3275C329.233 29.8511 330.299 31.9954 330.635 34.8169H309.157Z" fill="black"/>
</g>
<defs>
<clipPath id="clip0_22_394">
<rect width="340" height="61" fill="white"/>
</clipPath>
</defs>
</svg>
