<svg width="223" height="22" viewBox="0 0 223 22" fill="none" xmlns="http://www.w3.org/2000/svg">
<path d="M2.7168 9.94238V17H0.890625V1.27344H4.18848C5.34147 1.27344 6.1901 1.33431 6.73438 1.45605C7.27865 1.5778 7.7513 1.77832 8.15234 2.05762C8.65365 2.41569 9.04395 2.90625 9.32324 3.5293C9.6097 4.15234 9.75293 4.84342 9.75293 5.60254C9.75293 6.36165 9.6097 7.05273 9.32324 7.67578C9.04395 8.29883 8.65365 8.78939 8.15234 9.14746C7.7513 9.43392 7.27865 9.63802 6.73438 9.75977C6.19727 9.88151 5.34863 9.94238 4.18848 9.94238H3.66211H2.7168ZM2.7168 8.24512H3.66211C5.26628 8.24512 6.34408 8.05892 6.89551 7.68652C7.4541 7.30697 7.7334 6.64811 7.7334 5.70996C7.7334 4.70736 7.44694 4.00195 6.87402 3.59375C6.30827 3.18555 5.23763 2.98145 3.66211 2.98145H2.7168V8.24512ZM11.6758 12.1123C11.6758 13.1507 12.0231 14.0316 12.7178 14.7549C13.4124 15.471 14.2539 15.8291 15.2422 15.8291C16.2233 15.8291 17.0576 15.471 17.7451 14.7549C18.4326 14.0316 18.7764 13.1507 18.7764 12.1123C18.7764 11.0739 18.4326 10.1966 17.7451 9.48047C17.0576 8.75716 16.2233 8.39551 15.2422 8.39551C14.2467 8.39551 13.4017 8.75716 12.707 9.48047C12.0195 10.1966 11.6758 11.0739 11.6758 12.1123ZM9.89258 12.1123C9.89258 11.389 10.0251 10.7087 10.29 10.0713C10.555 9.42676 10.9417 8.85384 11.4502 8.35254C11.9587 7.85124 12.5352 7.47168 13.1797 7.21387C13.8242 6.94889 14.5117 6.81641 15.2422 6.81641C15.9583 6.81641 16.6351 6.94889 17.2725 7.21387C17.917 7.47884 18.5007 7.86556 19.0234 8.37402C19.5319 8.86816 19.9186 9.4375 20.1836 10.082C20.4486 10.7194 20.5811 11.3962 20.5811 12.1123C20.5811 12.8285 20.4486 13.5052 20.1836 14.1426C19.9186 14.7728 19.5319 15.335 19.0234 15.8291C18.5007 16.3447 17.9134 16.7386 17.2617 17.0107C16.6172 17.2829 15.944 17.4189 15.2422 17.4189C14.5189 17.4189 13.8314 17.2829 13.1797 17.0107C12.5352 16.7458 11.9587 16.3626 11.4502 15.8613C10.9417 15.3457 10.555 14.7728 10.29 14.1426C10.0251 13.5124 9.89258 12.8356 9.89258 12.1123ZM29.2393 6.81641L32.1826 13.874L34.8252 7.1709H36.7158L32.3438 17.6123L29.1104 10.0713L25.877 17.6123L21.4941 7.1709H23.3633L25.9844 13.874L28.9707 6.81641H29.2393ZM45.417 10.9736C45.3597 10.1071 45.0697 9.44108 44.5469 8.97559C44.0312 8.50293 43.3223 8.2666 42.4199 8.2666C41.6035 8.2666 40.9232 8.51367 40.3789 9.00781C39.8346 9.49479 39.5195 10.1501 39.4336 10.9736H45.417ZM47.2217 12.3379H39.4336V12.4883C39.4336 13.541 39.7344 14.3932 40.3359 15.0449C40.9375 15.6895 41.7217 16.0117 42.6885 16.0117C43.3473 16.0117 43.9417 15.8363 44.4717 15.4854C45.0016 15.1273 45.4707 14.5902 45.8789 13.874L47.1572 14.7334C46.6631 15.6214 46.0329 16.291 45.2666 16.7422C44.5003 17.1934 43.6123 17.4189 42.6025 17.4189C41.1058 17.4189 39.8955 16.9248 38.9717 15.9365C38.0479 14.9482 37.5859 13.652 37.5859 12.0479C37.5859 10.5081 38.0443 9.24772 38.9609 8.2666C39.8776 7.28548 41.0557 6.79492 42.4951 6.79492C43.9489 6.79492 45.0983 7.26042 45.9434 8.19141C46.7956 9.1224 47.2217 10.3936 47.2217 12.0049V12.3379ZM49.7891 17V7.1709H51.2822V9.21191C51.7334 8.3597 52.2132 7.75098 52.7217 7.38574C53.2301 7.02051 53.8496 6.83789 54.5801 6.83789C54.7806 6.83789 54.974 6.85579 55.1602 6.8916C55.3464 6.92025 55.5326 6.9668 55.7188 7.03125L55.1602 8.5459C54.9668 8.48145 54.7842 8.4349 54.6123 8.40625C54.4404 8.37044 54.2757 8.35254 54.1182 8.35254C53.2301 8.35254 52.5641 8.6748 52.1201 9.31934C51.6761 9.95671 51.4541 10.9199 51.4541 12.209V17H49.7891ZM64.4736 10.9736C64.4163 10.1071 64.1263 9.44108 63.6035 8.97559C63.0879 8.50293 62.3789 8.2666 61.4766 8.2666C60.6602 8.2666 59.9798 8.51367 59.4355 9.00781C58.8913 9.49479 58.5762 10.1501 58.4902 10.9736H64.4736ZM66.2783 12.3379H58.4902V12.4883C58.4902 13.541 58.791 14.3932 59.3926 15.0449C59.9941 15.6895 60.7783 16.0117 61.7451 16.0117C62.404 16.0117 62.9984 15.8363 63.5283 15.4854C64.0583 15.1273 64.5273 14.5902 64.9355 13.874L66.2139 14.7334C65.7197 15.6214 65.0895 16.291 64.3232 16.7422C63.557 17.1934 62.6689 17.4189 61.6592 17.4189C60.1624 17.4189 58.9521 16.9248 58.0283 15.9365C57.1045 14.9482 56.6426 13.652 56.6426 12.0479C56.6426 10.5081 57.1009 9.24772 58.0176 8.2666C58.9342 7.28548 60.1123 6.79492 61.5518 6.79492C63.0055 6.79492 64.1549 7.26042 65 8.19141C65.8522 9.1224 66.2783 10.3936 66.2783 12.0049V12.3379ZM76.3438 12.1338C76.3438 11.0381 76.0394 10.1572 75.4307 9.49121C74.8219 8.81803 74.0199 8.48145 73.0244 8.48145C72.029 8.48145 71.252 8.78581 70.6934 9.39453C70.1348 10.0033 69.8555 10.8447 69.8555 11.9189C69.8555 13.1292 70.1383 14.0781 70.7041 14.7656C71.2699 15.446 72.0505 15.7861 73.0459 15.7861C74.0771 15.7861 74.8828 15.4639 75.4629 14.8193C76.0501 14.1748 76.3438 13.2796 76.3438 12.1338ZM77.9766 0.349609V17H76.3438V15.2168C75.957 15.9258 75.4557 16.4701 74.8398 16.8496C74.224 17.2292 73.5365 17.4189 72.7773 17.4189C71.3665 17.4189 70.2279 16.9355 69.3613 15.9688C68.502 14.9948 68.0723 13.7093 68.0723 12.1123C68.0723 10.501 68.4948 9.21549 69.3398 8.25586C70.1849 7.29622 71.3092 6.81641 72.7129 6.81641C73.5293 6.81641 74.2383 7.0026 74.8398 7.375C75.4414 7.74023 75.9284 8.28809 76.3008 9.01855V0.349609H77.9766ZM89.5029 12.1338C89.5029 13.2796 89.7965 14.1748 90.3838 14.8193C90.971 15.4639 91.7767 15.7861 92.8008 15.7861C93.8034 15.7861 94.5876 15.446 95.1533 14.7656C95.7262 14.0781 96.0127 13.1292 96.0127 11.9189C96.0127 10.8447 95.7334 10.0033 95.1748 9.39453C94.6162 8.78581 93.8428 8.48145 92.8545 8.48145C91.8519 8.48145 91.0426 8.81803 90.4268 9.49121C89.8109 10.1572 89.5029 11.0381 89.5029 12.1338ZM87.9023 0.349609H89.5674V9.01855C89.9469 8.28809 90.4375 7.74023 91.0391 7.375C91.6406 7.0026 92.346 6.81641 93.1553 6.81641C94.5661 6.81641 95.6904 7.29622 96.5283 8.25586C97.3734 9.21549 97.7959 10.501 97.7959 12.1123C97.7959 13.7093 97.3662 14.9948 96.5068 15.9688C95.6475 16.9355 94.5088 17.4189 93.0908 17.4189C92.3317 17.4189 91.6406 17.2292 91.0176 16.8496C90.3945 16.4629 89.8896 15.9186 89.5029 15.2168V17H87.9023V0.349609ZM100.095 21.791L102.759 16.0332L98.9023 7.1709H100.847L103.704 14.2285L106.733 7.1709H108.581L101.985 21.791H100.095ZM119.592 17V3.05664H115.145V1.27344H125.908V3.05664H121.482V17H119.592ZM132.171 10.9736C132.114 10.1071 131.824 9.44108 131.301 8.97559C130.785 8.50293 130.076 8.2666 129.174 8.2666C128.357 8.2666 127.677 8.51367 127.133 9.00781C126.589 9.49479 126.273 10.1501 126.188 10.9736H132.171ZM133.976 12.3379H126.188V12.4883C126.188 13.541 126.488 14.3932 127.09 15.0449C127.691 15.6895 128.476 16.0117 129.442 16.0117C130.101 16.0117 130.696 15.8363 131.226 15.4854C131.756 15.1273 132.225 14.5902 132.633 13.874L133.911 14.7334C133.417 15.6214 132.787 16.291 132.021 16.7422C131.254 17.1934 130.366 17.4189 129.356 17.4189C127.86 17.4189 126.649 16.9248 125.726 15.9365C124.802 14.9482 124.34 13.652 124.34 12.0479C124.34 10.5081 124.798 9.24772 125.715 8.2666C126.632 7.28548 127.81 6.79492 129.249 6.79492C130.703 6.79492 131.852 7.26042 132.697 8.19141C133.549 9.1224 133.976 10.3936 133.976 12.0049V12.3379ZM136.607 17V0.349609H138.326V17H136.607ZM141.936 17V0.349609H143.654V17H141.936ZM154.149 10.9736C154.092 10.1071 153.802 9.44108 153.279 8.97559C152.764 8.50293 152.055 8.2666 151.152 8.2666C150.336 8.2666 149.656 8.51367 149.111 9.00781C148.567 9.49479 148.252 10.1501 148.166 10.9736H154.149ZM155.954 12.3379H148.166V12.4883C148.166 13.541 148.467 14.3932 149.068 15.0449C149.67 15.6895 150.454 16.0117 151.421 16.0117C152.08 16.0117 152.674 15.8363 153.204 15.4854C153.734 15.1273 154.203 14.5902 154.611 13.874L155.89 14.7334C155.396 15.6214 154.765 16.291 153.999 16.7422C153.233 17.1934 152.345 17.4189 151.335 17.4189C149.838 17.4189 148.628 16.9248 147.704 15.9365C146.78 14.9482 146.318 13.652 146.318 12.0479C146.318 10.5081 146.777 9.24772 147.693 8.2666C148.61 7.28548 149.788 6.79492 151.228 6.79492C152.681 6.79492 153.831 7.26042 154.676 8.19141C155.528 9.1224 155.954 10.3936 155.954 12.0049V12.3379ZM158.521 17V7.1709H160.015V9.21191C160.466 8.3597 160.946 7.75098 161.454 7.38574C161.963 7.02051 162.582 6.83789 163.312 6.83789C163.513 6.83789 163.706 6.85579 163.893 6.8916C164.079 6.92025 164.265 6.9668 164.451 7.03125L163.893 8.5459C163.699 8.48145 163.517 8.4349 163.345 8.40625C163.173 8.37044 163.008 8.35254 162.851 8.35254C161.963 8.35254 161.297 8.6748 160.853 9.31934C160.409 9.95671 160.187 10.9199 160.187 12.209V17H158.521ZM173.775 14.6689V16.624C173.331 16.889 172.83 17.0859 172.271 17.2148C171.72 17.3509 171.122 17.4189 170.478 17.4189C168.959 17.4189 167.735 16.9391 166.804 15.9795C165.88 15.0127 165.418 13.7451 165.418 12.1768C165.418 10.6012 165.898 9.31576 166.857 8.32031C167.817 7.31771 169.045 6.81641 170.542 6.81641C171.086 6.81641 171.616 6.8737 172.132 6.98828C172.655 7.10286 173.145 7.27116 173.604 7.49316V9.29785C173.174 9.01855 172.73 8.80729 172.271 8.66406C171.813 8.51367 171.348 8.43848 170.875 8.43848C169.772 8.43848 168.888 8.78581 168.222 9.48047C167.556 10.168 167.223 11.0846 167.223 12.2305C167.223 13.2402 167.556 14.0853 168.222 14.7656C168.895 15.446 169.736 15.7861 170.746 15.7861C171.255 15.7861 171.752 15.6966 172.239 15.5176C172.726 15.3385 173.238 15.0557 173.775 14.6689ZM177.105 12.1123C177.105 13.1507 177.453 14.0316 178.147 14.7549C178.842 15.471 179.684 15.8291 180.672 15.8291C181.653 15.8291 182.487 15.471 183.175 14.7549C183.862 14.0316 184.206 13.1507 184.206 12.1123C184.206 11.0739 183.862 10.1966 183.175 9.48047C182.487 8.75716 181.653 8.39551 180.672 8.39551C179.676 8.39551 178.831 8.75716 178.137 9.48047C177.449 10.1966 177.105 11.0739 177.105 12.1123ZM175.322 12.1123C175.322 11.389 175.455 10.7087 175.72 10.0713C175.985 9.42676 176.371 8.85384 176.88 8.35254C177.388 7.85124 177.965 7.47168 178.609 7.21387C179.254 6.94889 179.941 6.81641 180.672 6.81641C181.388 6.81641 182.065 6.94889 182.702 7.21387C183.347 7.47884 183.93 7.86556 184.453 8.37402C184.962 8.86816 185.348 9.4375 185.613 10.082C185.878 10.7194 186.011 11.3962 186.011 12.1123C186.011 12.8285 185.878 13.5052 185.613 14.1426C185.348 14.7728 184.962 15.335 184.453 15.8291C183.93 16.3447 183.343 16.7386 182.691 17.0107C182.047 17.2829 181.374 17.4189 180.672 17.4189C179.949 17.4189 179.261 17.2829 178.609 17.0107C177.965 16.7458 177.388 16.3626 176.88 15.8613C176.371 15.3457 175.985 14.7728 175.72 14.1426C175.455 13.5124 175.322 12.8356 175.322 12.1123ZM202.328 17V11.21C202.328 10.2145 202.128 9.47689 201.727 8.99707C201.326 8.51009 200.71 8.2666 199.879 8.2666C199.428 8.2666 199.009 8.3597 198.622 8.5459C198.243 8.72493 197.92 8.98275 197.655 9.31934C197.462 9.57715 197.322 9.87793 197.236 10.2217C197.15 10.5654 197.107 11.1312 197.107 11.9189V17H195.485V11.21C195.485 10.2145 195.285 9.47689 194.884 8.99707C194.483 8.51009 193.867 8.2666 193.036 8.2666C192.585 8.2666 192.162 8.3597 191.769 8.5459C191.382 8.72493 191.056 8.98275 190.791 9.31934C190.605 9.56999 190.469 9.86003 190.383 10.1895C190.304 10.5189 190.265 11.0954 190.265 11.9189V17H188.643V7.1709H190.286V8.68555C190.694 8.05534 191.181 7.58626 191.747 7.27832C192.313 6.97038 192.965 6.81641 193.702 6.81641C194.497 6.81641 195.174 6.98828 195.732 7.33203C196.291 7.66862 196.714 8.16276 197 8.81445C197.423 8.14128 197.92 7.63997 198.493 7.31055C199.073 6.98112 199.743 6.81641 200.502 6.81641C201.598 6.81641 202.453 7.12435 203.069 7.74023C203.685 8.35612 203.993 9.21191 203.993 10.3076V17H202.328ZM220.998 17V11.21C220.998 10.2145 220.798 9.47689 220.396 8.99707C219.995 8.51009 219.38 8.2666 218.549 8.2666C218.098 8.2666 217.679 8.3597 217.292 8.5459C216.912 8.72493 216.59 8.98275 216.325 9.31934C216.132 9.57715 215.992 9.87793 215.906 10.2217C215.82 10.5654 215.777 11.1312 215.777 11.9189V17H214.155V11.21C214.155 10.2145 213.955 9.47689 213.554 8.99707C213.153 8.51009 212.537 8.2666 211.706 8.2666C211.255 8.2666 210.832 8.3597 210.438 8.5459C210.052 8.72493 209.726 8.98275 209.461 9.31934C209.275 9.56999 209.139 9.86003 209.053 10.1895C208.974 10.5189 208.935 11.0954 208.935 11.9189V17H207.312V7.1709H208.956V8.68555C209.364 8.05534 209.851 7.58626 210.417 7.27832C210.983 6.97038 211.634 6.81641 212.372 6.81641C213.167 6.81641 213.844 6.98828 214.402 7.33203C214.961 7.66862 215.383 8.16276 215.67 8.81445C216.092 8.14128 216.59 7.63997 217.163 7.31055C217.743 6.98112 218.413 6.81641 219.172 6.81641C220.268 6.81641 221.123 7.12435 221.739 7.74023C222.355 8.35612 222.663 9.21191 222.663 10.3076V17H220.998Z" fill="black"/>
</svg>
